{"title":"Sheila Ki Jawani Preview Music Video HD avi 1696x720p Shiela She","uid":6077892,"size":123913778,"categoryP":"video","categoryS":"music_videos","magnet":"?xt=urn:btih:9b7f008899071135ffe10b336e1dc1fe669ad614&amp;dn=Sheila+Ki+Jawani+Preview+Music+Video+HD+avi+1696x720p+Shiela+She&amp;tr=udp%3A%2F%2Ftracker.openbittorrent.com%3A80&amp;tr=udp%3A%2F%2Fopen.demonii.com%3A1337&amp;tr=udp%3A%2F%2Ftracker.coppersurfer.tk%3A6969&amp;tr=udp%3A%2F%2Fexodus.desync.com%3A6969","seeders":0,"leechers":1,"uploader":"CoolCareChild","files":1,"time":1293927215,"description":"Screenshots\n &lt;a href=&quot;\nhttp://bayimg.com/aaCpjAaDe&quot; rel=&quot;nofollow&quot; target=&quot;_NEW&quot;&gt;\nhttp://bayimg.com/aaCpjAaDe&lt;/a&gt; - Thumbnails\n &lt;a href=&quot;\nhttp://bayimg.com/BaCPeaaDE&quot; rel=&quot;nofollow&quot; target=&quot;_NEW&quot;&gt;\nhttp://bayimg.com/BaCPeaaDE&lt;/a&gt;\n &lt;a href=&quot;\nhttp://bayimg.com/BACPgaadE&quot; rel=&quot;nofollow&quot; target=&quot;_NEW&quot;&gt;\nhttp://bayimg.com/BACPgaadE&lt;/a&gt;\n &lt;a href=&quot;\nhttp://bayimg.com/BaCpJaade&quot; rel=&quot;nofollow&quot; target=&quot;_NEW&quot;&gt;\nhttp://bayimg.com/BaCpJaade&lt;/a&gt;\n &lt;a href=&quot;\nhttp://bayimg.com/bAcPNaaDE&quot; rel=&quot;nofollow&quot; target=&quot;_NEW&quot;&gt;\nhttp://bayimg.com/bAcPNaaDE&lt;/a&gt;\n &lt;a href=&quot;\nhttp://bayimg.com/BAcPpAAde&quot; rel=&quot;nofollow&quot; target=&quot;_NEW&quot;&gt;\nhttp://bayimg.com/BAcPpAAde&lt;/a&gt;\n &lt;a href=&quot;\nhttp://bayimg.com/cacpDAadE&quot; rel=&quot;nofollow&quot; target=&quot;_NEW&quot;&gt;\nhttp://bayimg.com/cacpDAadE&lt;/a&gt;\n &lt;a href=&quot;\nhttp://bayimg.com/CaCPgaAdE&quot; rel=&quot;nofollow&quot; target=&quot;_NEW&quot;&gt;\nhttp://bayimg.com/CaCPgaAdE&lt;/a&gt;\n &lt;a href=&quot;\nhttp://bayimg.com/caCpKAADE&quot; rel=&quot;nofollow&quot; target=&quot;_NEW&quot;&gt;\nhttp://bayimg.com/caCpKAADE&lt;/a&gt;\n &lt;a href=&quot;\nhttp://bayimg.com/CaCPnaAdE&quot; rel=&quot;nofollow&quot; target=&quot;_NEW&quot;&gt;\nhttp://bayimg.com/CaCPnaAdE&lt;/a&gt;\n &lt;a href=&quot;\nhttp://bayimg.com/CacppAAdE&quot; rel=&quot;nofollow&quot; target=&quot;_NEW&quot;&gt;\nhttp://bayimg.com/CacppAAdE&lt;/a&gt;\n\n\nGeneral\nComplete name                    : Sheila Ki Jawani.avi\nFormat                           : AVI\nFormat/Info                      : Audio Video Interleave\nFile size                        : 118 MiB\nDuration                         : 2mn 18s\nOverall bit rate                 : 7 136 Kbps\n\nVideo\nID                               : 0\nFormat                           : MPEG-4 Visual\nFormat profile                   : Advanced Simple@L5\nFormat settings, BVOP            : Yes\nFormat settings, QPel            : No\nFormat settings, GMC             : No warppoints\nFormat settings, Matrix          : Default (H.263)\nCodec ID                         : XVID\nCodec ID/Hint                    : XviD\nDuration                         : 2mn 18s\nBit rate                         : 6 998 Kbps\nWidth                            : 1 696 pixels\nHeight                           : 720 pixels\nDisplay aspect ratio             : 2.35:1\nFrame rate                       : 25.000 fps\nColor space                      : YUV\nChroma subsampling               : 4:2:0\nBit depth                        : 8 bits\nScan type                        : Progressive\nCompression mode                 : Lossy\nBits/(Pixel*Frame)               : 0.229\nStream size                      : 116 MiB (98%)\nWriting library                  : XviD 1.2.1 (UTC 2008-12-04)\n\nAudio\nID                               : 1\nFormat                           : MPEG Audio\nFormat version                   : Version 1\nFormat profile                   : Layer 3\nCodec ID                         : 55\nCodec ID/Hint                    : MP3\nDuration                         : 2mn 18s\nBit rate mode                    : Constant\nBit rate                         : 128 Kbps\nChannel(s)                       : 2 channels\nSampling rate                    : 44.1 KHz\nCompression mode                 : Lossy\nStream size                      : 2.11 MiB (2%)\nAlignment                        : Aligned on interleaves\nInterleave, duration             : 40 ms (1.00 video frame)\n\nPLEASE SEED !!!","torrent":{"xt":"urn:btih:9b7f008899071135ffe10b336e1dc1fe669ad614","amp;dn":"Sheila+Ki+Jawani+Preview+Music+Video+HD+avi+1696x720p+Shiela+She","amp;tr":["udp%3A%2F%2Ftracker.openbittorrent.com%3A80","udp%3A%2F%2Fopen.demonii.com%3A1337","udp%3A%2F%2Ftracker.coppersurfer.tk%3A6969","udp%3A%2F%2Fexodus.desync.com%3A6969"],"infoHash":"9b7f008899071135ffe10b336e1dc1fe669ad614","infoHashBuffer":{"type":"Buffer","data":[155,127,0,136,153,7,17,53,255,225,11,51,110,29,193,254,102,154,214,20]},"announce":[],"urlList":[]}}